<svg width="372" height="36" viewBox="0 0 372 36" fill="none" xmlns="http://www.w3.org/2000/svg">
<path d="M0.344 35V32.456H2.36C3.032 32.456 3.608 32.296 4.088 31.976C4.568 31.656 4.808 30.856 4.808 29.576V6.2C4.808 4.92 4.568 4.12 4.088 3.8C3.608 3.448 3.032 3.272 2.36 3.272H0.344V0.727998H14.168L22.136 23.912L29.768 0.727998H43.352V3.272H41.336C40.632 3.272 40.04 3.448 39.56 3.8C39.112 4.152 38.888 5.016 38.888 6.392V29.336C38.888 30.712 39.112 31.576 39.56 31.928C40.04 32.28 40.632 32.456 41.336 32.456H43.352V35H27.992V32.456H28.472C29.496 32.456 30.248 32.312 30.728 32.024C31.24 31.704 31.496 30.952 31.496 29.768V5.48L21.8 35H18.536L8.408 5.48V29.336C8.408 30.712 8.712 31.576 9.32 31.928C9.96 32.28 10.84 32.456 11.96 32.456H12.248V35H0.344ZM44.8951 35V32.456H45.4711C46.3351 32.456 47.0551 32.232 47.6311 31.784C48.2391 31.336 48.7991 30.392 49.3111 28.952L59.7271 0.727998H66.3031L76.3351 29C76.8151 30.344 77.3431 31.256 77.9191 31.736C78.5271 32.216 79.2151 32.456 79.9831 32.456H80.8471V35H65.0071V32.456H66.8791C67.3591 32.456 67.8231 32.312 68.2711 32.024C68.7191 31.736 68.9431 31.256 68.9431 30.584C68.9431 30.2 68.8951 29.832 68.7991 29.48C68.7031 29.096 68.6071 28.776 68.5111 28.52L66.8311 23.72H55.1671L53.7751 27.848C53.6471 28.232 53.5191 28.696 53.3911 29.24C53.2631 29.752 53.1991 30.2 53.1991 30.584C53.1991 31.192 53.4231 31.656 53.8711 31.976C54.3191 32.296 54.8151 32.456 55.3591 32.456H57.3751V35H44.8951ZM56.1751 20.792H65.8711L63.3271 12.92C63.0071 11.832 62.6391 10.616 62.2231 9.272C61.8391 7.928 61.5191 6.696 61.2631 5.576C60.9751 6.6 60.6231 7.768 60.2071 9.08C59.7911 10.36 59.3911 11.56 59.0071 12.68L56.1751 20.792ZM82.1878 35V32.456H84.2038C84.8438 32.456 85.4038 32.296 85.8838 31.976C86.3958 31.656 86.6518 30.856 86.6518 29.576V6.2C86.6518 4.92 86.3958 4.12 85.8838 3.8C85.4038 3.448 84.8438 3.272 84.2038 3.272H82.1878V0.727998H97.6438C102.188 0.727998 105.516 1.496 107.628 3.032C109.74 4.536 110.796 6.728 110.796 9.608C110.796 11.304 110.476 12.744 109.836 13.928C109.196 15.112 108.38 16.088 107.388 16.856C106.396 17.624 105.356 18.232 104.268 18.68L109.98 28.52C110.812 29.896 111.596 30.904 112.332 31.544C113.068 32.152 113.884 32.456 114.78 32.456H114.972V35H113.388C111.468 35 109.868 34.888 108.588 34.664C107.308 34.44 106.236 34.024 105.372 33.416C104.54 32.776 103.788 31.864 103.116 30.68L97.4038 20.12H94.2358V29.576C94.2358 30.856 94.4758 31.656 94.9557 31.976C95.4678 32.296 96.0438 32.456 96.6838 32.456H98.7478V35H82.1878ZM96.9238 17.336C99.1318 17.336 100.652 16.744 101.484 15.56C102.316 14.376 102.732 12.616 102.732 10.28C102.732 7.848 102.284 6.12 101.388 5.096C100.492 4.072 98.9718 3.56 96.8278 3.56H94.2358V17.336H96.9238ZM116.125 35V32.456H118.141C118.813 32.456 119.389 32.296 119.869 31.976C120.349 31.656 120.589 30.856 120.589 29.576V6.2C120.589 4.92 120.349 4.12 119.869 3.8C119.389 3.448 118.813 3.272 118.141 3.272H116.125V0.727998H132.685V3.272H130.669C129.965 3.272 129.373 3.448 128.893 3.8C128.413 4.152 128.173 5.016 128.173 6.392V17.576L135.613 9.464C136.637 8.344 137.341 7.432 137.725 6.728C138.141 5.992 138.349 5.288 138.349 4.616C138.349 4.072 138.141 3.704 137.725 3.512C137.341 3.32 136.653 3.224 135.661 3.224V0.727998H148.669V3.224C147.389 3.224 146.189 3.624 145.069 4.424C143.981 5.192 142.877 6.2 141.757 7.448L135.421 14.408L144.349 28.568C145.309 30.04 146.189 31.064 146.989 31.64C147.821 32.184 148.765 32.456 149.821 32.456H150.013V35H147.421C144.989 35 143.101 34.84 141.757 34.52C140.445 34.2 139.437 33.72 138.733 33.08C138.029 32.408 137.373 31.576 136.765 30.584L130.285 19.544L128.173 21.224V29.336C128.173 30.712 128.413 31.576 128.893 31.928C129.373 32.28 129.965 32.456 130.669 32.456H132.685V35H116.125ZM151.375 35V32.456H153.391C154.063 32.456 154.639 32.296 155.119 31.976C155.599 31.656 155.839 30.856 155.839 29.576V6.392C155.839 5.016 155.599 4.152 155.119 3.8C154.671 3.448 154.095 3.272 153.391 3.272H151.375V0.727998H178.015L178.207 9.56H174.847L174.607 7.304C174.479 6.12 174.175 5.224 173.695 4.616C173.247 3.976 172.527 3.656 171.535 3.656H163.471V15.656H174.847V18.536H163.471V32.072H173.071C174.031 32.072 174.735 31.736 175.183 31.064C175.663 30.36 175.983 29.48 176.143 28.424L176.527 26.168H179.839L179.503 35H151.375ZM188.783 35V32.456H190.799C191.503 32.456 192.079 32.28 192.527 31.928C193.007 31.576 193.247 30.712 193.247 29.336V3.656H189.407C187.967 3.656 186.975 3.96 186.431 4.568C185.887 5.176 185.551 6.008 185.423 7.064L185.087 10.04H181.871L182.111 0.727998H212.015L212.255 10.04H209.039L208.703 7.064C208.575 6.008 208.239 5.176 207.695 4.568C207.151 3.96 206.159 3.656 204.719 3.656H200.879V29.336C200.879 30.712 201.103 31.576 201.551 31.928C202.031 32.28 202.623 32.456 203.327 32.456H205.343V35H188.783ZM214.094 35V32.456H216.11C216.814 32.456 217.39 32.28 217.838 31.928C218.318 31.576 218.558 30.712 218.558 29.336V6.2C218.558 4.92 218.318 4.12 217.838 3.8C217.358 3.448 216.782 3.272 216.11 3.272H214.094V0.727998H228.83C233.278 0.727998 236.574 1.64 238.718 3.464C240.862 5.288 241.934 7.768 241.934 10.904C241.934 12.824 241.47 14.616 240.542 16.28C239.646 17.944 238.158 19.304 236.078 20.36C233.998 21.384 231.23 21.896 227.774 21.896H226.142V29.576C226.142 30.856 226.398 31.656 226.91 31.976C227.422 32.296 228.014 32.456 228.686 32.456H231.614V35H214.094ZM227.294 19.112C229.662 19.112 231.342 18.504 232.334 17.288C233.358 16.04 233.87 13.976 233.87 11.096C233.87 8.536 233.422 6.648 232.526 5.432C231.662 4.184 230.158 3.56 228.014 3.56H226.142V19.112H227.294ZM244.703 35V32.456H246.719C247.423 32.456 247.999 32.28 248.447 31.928C248.927 31.576 249.167 30.712 249.167 29.336V6.392C249.167 5.016 248.927 4.152 248.447 3.8C247.999 3.448 247.423 3.272 246.719 3.272H244.703V0.727998H261.263V3.272H259.247C258.575 3.272 257.999 3.448 257.519 3.8C257.039 4.12 256.799 4.92 256.799 6.2V32.072H265.727C266.847 32.072 267.711 31.72 268.319 31.016C268.959 30.28 269.423 29.24 269.711 27.896L270.479 24.296H273.167L272.831 35H244.703ZM274.958 35V32.456H275.534C276.398 32.456 277.118 32.232 277.694 31.784C278.302 31.336 278.862 30.392 279.374 28.952L289.79 0.727998H296.366L306.398 29C306.878 30.344 307.406 31.256 307.982 31.736C308.59 32.216 309.278 32.456 310.046 32.456H310.91V35H295.07V32.456H296.942C297.422 32.456 297.886 32.312 298.334 32.024C298.782 31.736 299.006 31.256 299.006 30.584C299.006 30.2 298.958 29.832 298.862 29.48C298.766 29.096 298.67 28.776 298.574 28.52L296.894 23.72H285.23L283.838 27.848C283.71 28.232 283.582 28.696 283.454 29.24C283.326 29.752 283.262 30.2 283.262 30.584C283.262 31.192 283.486 31.656 283.934 31.976C284.382 32.296 284.878 32.456 285.422 32.456H287.438V35H274.958ZM286.238 20.792H295.934L293.39 12.92C293.07 11.832 292.702 10.616 292.286 9.272C291.902 7.928 291.582 6.696 291.326 5.576C291.038 6.6 290.686 7.768 290.27 9.08C289.854 10.36 289.454 11.56 289.07 12.68L286.238 20.792ZM329.217 35.48C325.505 35.48 322.417 34.744 319.953 33.272C317.489 31.8 315.649 29.752 314.433 27.128C313.217 24.472 312.609 21.368 312.609 17.816C312.609 14.36 313.233 11.32 314.481 8.696C315.729 6.04 317.585 3.976 320.049 2.504C322.513 0.999998 325.553 0.247998 329.169 0.247998C332.849 0.247998 335.585 0.791998 337.377 1.88C339.201 2.936 340.113 4.248 340.113 5.816C340.113 7 339.601 7.992 338.577 8.792C337.553 9.592 336.065 9.992 334.113 9.992C334.113 8.936 333.953 7.896 333.633 6.872C333.313 5.848 332.769 5 332.001 4.328C331.233 3.656 330.177 3.32 328.833 3.32C325.793 3.32 323.665 4.584 322.449 7.112C321.265 9.608 320.673 13.176 320.673 17.816C320.673 22.456 321.393 25.928 322.833 28.232C324.305 30.504 326.817 31.64 330.369 31.64C331.937 31.64 333.281 31.416 334.401 30.968C335.521 30.488 336.465 29.896 337.233 29.192C338.033 28.488 338.705 27.784 339.249 27.08C339.793 27.528 340.065 28.216 340.065 29.144C340.065 30.04 339.729 30.984 339.057 31.976C338.385 32.936 337.265 33.768 335.697 34.472C334.129 35.144 331.969 35.48 329.217 35.48ZM343.375 35V32.456H345.391C346.063 32.456 346.639 32.296 347.119 31.976C347.599 31.656 347.839 30.856 347.839 29.576V6.392C347.839 5.016 347.599 4.152 347.119 3.8C346.671 3.448 346.095 3.272 345.391 3.272H343.375V0.727998H370.015L370.207 9.56H366.847L366.607 7.304C366.479 6.12 366.175 5.224 365.695 4.616C365.247 3.976 364.527 3.656 363.535 3.656H355.471V15.656H366.847V18.536H355.471V32.072H365.071C366.031 32.072 366.735 31.736 367.183 31.064C367.663 30.36 367.983 29.48 368.143 28.424L368.527 26.168H371.839L371.503 35H343.375Z" fill="white"/>
</svg>
